# xmcd
#
# Track frame offsets:
#	150
#	14334
#	27565
#	41707
#	56898
#	79453
#	92626
#	108920
#	123693
#	141899
#	154846
#	179082
#	193064
#	213310
#	226610
#	235635
#	246063
#
# Disc length: 3488 seconds
#
# Revision: 1
# Processed by: cddbd v1.5.2PL0 Copyright (c) Steve Scherf et al.
# Submitted via: audiograbber 1.83.01
#
DISCID=ee0d9e11
DTITLE=Chartbuster - ESP462-02
DYEAR=1900
DGENRE=
TTITLE0=Thomas, B J - Let It Snow
TTITLE1=Gilley, Mickey - Joy to The World
TTITLE2=Country - Marbelous Little Toy
TTITLE3=Country - Silent Night
TTITLE4=Orlando, Tony - Little Drummer Boy
TTITLE5=Country - It's Beginning To Look A Lot Like Christmas
TTITLE6=Hall, Tom T - O Christmas Tree
TTITLE7=Kids - Rudolph The Red Nosed Reindeer
TTITLE8=Country - O Come All Ye Faithful
TTITLE9=Traditional - My Favorite Things
TTITLE10=Gatlin, Larry - O Holy Night
TTITLE11=Jackson, Alan - Honky Tonk Christmas
TTITLE12=Gilley, Mickey - O Little Town Of Bethlehem
TTITLE13=Traditional - Sleigh Ride
TTITLE14=Traditional - Twas The Night Before Christmas
TTITLE15=Boxcar Willie - Up On The Housetop
TTITLE16=Rabbitt, Eddie - We Wish You A Merry Christmas
EXTD=Christmas
EXTT0=
EXTT1=
EXTT2=
EXTT3=
EXTT4=
EXTT5=
EXTT6=
EXTT7=
EXTT8=
EXTT9=
EXTT10=
EXTT11=
EXTT12=
EXTT13=
EXTT14=
EXTT15=
EXTT16=
PLAYORDER=
